<?xml version="1.0" encoding="UTF-8"?>
<svg width="18px" height="22px" viewBox="0 0 18 22" version="1.1" xmlns="http://www.w3.org/2000/svg" xmlns:xlink="http://www.w3.org/1999/xlink">
    <!-- Generator: Sketch 58 (84663) - https://sketch.com -->
    <title>app-store</title>
    <desc>Created with Sketch.</desc>
    <g id="PiepJOB" stroke="none" stroke-width="1" fill="none" fill-rule="evenodd">
        <g id="PiepJOBs-website-Copy-2" transform="translate(-780.000000, -849.000000)" fill="#FFFFFF" fill-rule="nonzero">
            <g id="JOIN-GROUP" transform="translate(214.000000, 828.000000)">
                <g id="Group-6" transform="translate(539.000000, 11.000000)">
                    <path d="M39.7636675,15.0685078 C40.5503518,15.0685078 42.9356074,15.2415859 44.3696325,17.4005078 L44.7055399,17.9065508 L44.2221024,18.2722578 C43.5314712,18.7946719 42.2713362,19.7476328 42.2713362,21.635293 C42.2713362,23.871 43.6984605,24.7308047 44.3840769,25.1443359 C44.6867236,25.3268672 45,25.5150703 45,25.9267109 C45,26.1954805 42.8602565,31.9666562 39.752995,31.9666562 C38.9926706,31.9666562 38.4552273,31.7375469 37.9811766,31.5355078 C37.5015109,31.3309336 37.0877237,31.1547187 36.4039933,31.1547187 C36.0574133,31.1547187 35.6191521,31.3189883 35.1551738,31.4933555 C34.5211201,31.7305859 33.8034432,32 32.9891131,32 L32.967768,32 C29.7016609,31.9811367 27,25.2972617 27,21.8933203 C27,16.3329922 31.1608029,15.1156875 32.7643462,15.1156875 C33.486995,15.1156875 34.2586349,15.4001836 34.9392363,15.6519375 C35.4151731,15.8275508 35.9073972,16.0088359 36.1811551,16.0088359 C36.3450155,16.0088359 36.7311569,15.8546211 37.0720792,15.7193125 C37.7991428,15.4291445 38.7038683,15.0685078 39.7574097,15.0685078 L39.7636675,15.0685078 Z M40.0865878,10 C40.1675108,12.9251406 38.0807872,14.9544688 35.9965068,14.8271953 C35.6530557,12.492832 38.0805301,10 40.0865878,10 Z" id="app-store"></path>
                </g>
            </g>
        </g>
    </g>
</svg>