<!-- Generated by IcoMoon.io -->
<svg version="1.1" xmlns="http://www.w3.org/2000/svg" width="1024" height="1024" viewBox="0 0 1024 1024">
<title></title>
<g id="icomoon-ignore">
</g>
<path d="M723.701 3.236c192.35 8.857 288.631 117.658 297.062 297.062 4.173 94.11 4.429 326.956 0 421.023-6.984 151.98-78.439 236.594-173.102 273.343-62.422 24.167-123.508 26.564-277.38 26.802l-57.114 0.026c-191.924 0-326.275 12.903-424.941-85.721-96.792-96.792-85.721-226.161-85.721-424.941 0-194.223-12.562-326.658 85.721-424.941 58.808-58.808 131.753-78.779 214.45-82.655 94.11-4.173 326.999-4.386 421.023 0zM513.254 92.066l-46.145-1.249c-96.721 0.143-114.816 0.84-162.557 2.526-236.125 12.094-211.981 181.533-211.981 416.807 0 173.868-12.988 288.546 58.765 359.958 54.512 54.661 126.695 59.081 286.527 59.332l93.718 0.002c192.878 0.282 278.598 3.655 340.949-58.695 63.322-63.62 59.319-149.511 59.361-359.958l-0.048-56.867c-0.177-85.629-0.894-104.286-2.933-149.536-10.483-231.543-181.944-213.139-402.621-212.346l-13.037 0.024-1.916-1.278zM513.168 248.602c144.784 0 262.229 117.318 262.229 262.229 0 144.784-117.318 262.229-262.229 262.229-144.784 0-262.229-117.318-262.229-262.229 0-144.784 117.318-262.229 262.229-262.229zM513.168 340.625c-94.024 0-170.206 76.182-170.206 170.206s76.139 170.206 170.206 170.206c94.067 0 170.249-76.182 170.206-170.206 0-94.024-76.182-170.206-170.206-170.206zM785.788 176.977c33.843 0 61.278 27.435 61.278 61.278s-27.435 61.278-61.278 61.278c-33.843 0-61.278-27.435-61.278-61.278s27.435-61.278 61.278-61.278z"></path>
</svg>
