<?xml version="1.0" encoding="UTF-8"?>
<svg width="18px" height="20px" viewBox="0 0 18 20" version="1.1" xmlns="http://www.w3.org/2000/svg" xmlns:xlink="http://www.w3.org/1999/xlink">
    <!-- Generator: Sketch 58 (84663) - https://sketch.com -->
    <title>play-store</title>
    <desc>Created with Sketch.</desc>
    <g id="PiepJOB" stroke="none" stroke-width="1" fill="none" fill-rule="evenodd">
        <g id="PiepJOBs-website-Copy-2" transform="translate(-980.000000, -853.000000)" fill="#FFFFFF" fill-rule="nonzero">
            <g id="JOIN-GROUP" transform="translate(214.000000, 828.000000)">
                <g id="Group-10" transform="translate(746.000000, 11.000000)">
                    <path d="M37.1688537,22.5742449 L22.4688329,14.2158085 C22.2154008,14.0718092 21.9332457,14 21.6510907,14 C21.6453461,14 21.6396972,14.0007619 21.6340484,14.0007619 C21.5961341,14.0011429 21.5583156,14.0030476 21.5205928,14.006 C21.5035505,14.0073333 21.4866039,14.0091428 21.4695617,14.0110476 C21.4400728,14.0142856 21.4106796,14.0183809 21.3813822,14.023238 C21.3707547,14.0250475 21.3600315,14.0256189 21.349404,14.0276189 L21.3499785,14.0283808 C21.1668218,14.0619997 20.9880693,14.1261899 20.821955,14.2220942 C20.3131759,14.5157118 20,15.0565664 20,15.6416112 L20,32.3583888 C20,32.9434336 20.3131759,33.4842882 20.821955,33.7779058 C20.9879736,33.8738101 21.1667261,33.9380955 21.3498827,33.9717144 L21.349404,33.9723811 C21.3589783,33.9741906 21.3686484,33.974762 21.3781269,33.9762858 C21.4096264,33.9816191 21.4412217,33.9860001 21.4729127,33.9893334 C21.488806,33.9910477 21.5046036,33.9927619 21.520497,33.994 C21.5577411,33.9969524 21.5948894,33.9986667 21.6322293,33.9991429 C21.6385483,33.9992381 21.6447716,34 21.6510907,34 C21.9332457,34 22.2154008,33.9281908 22.4688329,33.7841915 L37.1688537,25.4256599 C37.6828029,25.1333756 38,24.5897591 38,24.0007143 C38,24.0007143 38,24.0004286 38,24.0003333 C38,24.0003333 38,24.0000476 38,23.9999524 C38,23.9999524 38,23.9996667 38,23.9995714 C38,23.9995714 38,23.9992857 38,23.9991905 C38,23.4102409 37.6828029,22.8666244 37.1688537,22.5742449 Z M31.3555209,20.914348 L29.8939059,22.8216723 L26.1752419,17.968743 L31.3555209,20.914348 Z M36.4561417,24.1853801 L26.1752419,30.0311618 L32.612437,21.6306303 L36.4560459,23.8160485 C36.5225874,23.8538578 36.5639484,23.9247146 36.5639484,24.000619 C36.5639484,24.0768092 36.5224917,24.147666 36.4561417,24.1853801 Z" id="play-store"></path>
                </g>
            </g>
        </g>
    </g>
</svg>