<!-- Generated by IcoMoon.io -->
<svg version="1.1" xmlns="http://www.w3.org/2000/svg" width="1280" height="1024" viewBox="0 0 1280 1024">
<title></title>
<g id="icomoon-ignore">
</g>
<path d="M1280 121.226c-47.6 20.559-98.32 34.186-151.2 40.802 54.4-31.98 95.92-82.235 115.44-142.809-50.72 29.775-106.72 50.806-166.4 62.543-48.16-50.491-116.8-81.762-191.68-81.762-145.28 0-262.24 116.106-262.24 258.442 0 20.48 1.76 40.172 6.080 58.919-218.16-10.476-411.2-113.428-540.88-270.257-22.64 38.676-35.92 82.944-35.92 130.599 0 89.482 46.8 168.802 116.56 214.725-42.16-0.788-83.52-12.839-118.56-31.823 0 0.788 0 1.812 0 2.836 0 125.558 90.96 229.849 210.24 253.873-21.36 5.75-44.64 8.507-68.8 8.507-16.8 0-33.76-0.945-49.68-4.411 34 102.321 130.48 177.546 245.2 179.988-89.28 68.766-202.64 110.198-325.36 110.198-21.52 0-42.16-0.945-62.8-3.545 116.24 73.807 254 115.948 402.56 115.948 482.88 0 746.88-393.846 746.88-735.232 0-11.422-0.4-22.449-0.96-33.398 52.080-36.391 95.84-81.841 131.52-134.144z"></path>
</svg>
